<svg height="479pt" viewBox="0 -29 479.34136 479" width="479pt" xmlns="http://www.w3.org/2000/svg"><path d="m473.339844 262.4375-29.929688 32.960938-18.320312-14.679688-101.75-81.511719-100.589844 80.589844-19.46875 15.601563-29.941406-32.960938 150-119.730469 100.5625 80.273438zm0 0" fill="#f8ec7d"/><path d="m425.089844 280.71875-1.1875 1.480469v132.109375h-201.121094v-134.46875l-.03125-.042969 100.589844-80.589844zm-66.75 47.789062c0-19.328124-15.667969-35-35-35-19.328125 0-35 15.671876-35 35 0 19.332032 15.671875 35 35 35 19.332031 0 35-15.667968 35-35zm0 0" fill="#e48e66"/><path d="m358.339844 328.507812c0 19.332032-15.667969 35-35 35-19.328125 0-35-15.667968-35-35 0-19.328124 15.671875-35 35-35 19.332031 0 35 15.671876 35 35zm0 0" fill="#6fe3ff"/><path d="m182.203125 90.546875c1.546875 21.742187-5.691406 42.960937-18.632813 60.5625l-69.367187 92.660156-69.363281-92.660156c-12.9375-17.601563-20.1875-38.820313-18.636719-60.5625 3.109375-44.519531 38.828125-84.378906 88-84.378906 49.167969 0 84.898437 39.859375 88 84.378906zm-55.390625-.519531c0-18.007813-14.601562-32.609375-32.609375-32.609375-18.011719 0-32.613281 14.601562-32.613281 32.609375 0 18.011718 14.601562 32.613281 32.613281 32.613281 8.660156.035156 16.976563-3.386719 23.097656-9.511719 6.125-6.125 9.546875-14.441406 9.511719-23.101562zm0 0" fill="#f8ec7d"/><path d="m126.8125 90.027344c0 18.011718-14.601562 32.613281-32.609375 32.613281-18.011719 0-32.613281-14.601563-32.613281-32.613281 0-18.007813 14.601562-32.609375 32.613281-32.609375 18.007813 0 32.609375 14.601562 32.609375 32.609375zm0 0" fill="#e48e66"/><g fill="#63316d"><path d="m132.8125 90.027344c0-21.324219-17.289062-38.609375-38.609375-38.609375-21.324219 0-38.613281 17.285156-38.613281 38.609375 0 21.324218 17.289062 38.613281 38.613281 38.613281 21.3125-.027344 38.585937-17.296875 38.609375-38.613281zm-65.222656 0c0-14.695313 11.914062-26.609375 26.613281-26.609375 14.695313 0 26.609375 11.914062 26.609375 26.609375 0 14.699218-11.914062 26.613281-26.609375 26.613281-7.082031.074219-13.894531-2.703125-18.902344-7.710937-5.007812-5.007813-7.785156-11.820313-7.710937-18.902344zm0 0"/><path d="m477.085938 257.75-47.183594-37.660156v-41.292969c0-3.3125-2.6875-6-6-6s-6 2.6875-6 6v31.714844l-90.816406-72.492188c-2.191407-1.746093-5.296876-1.746093-7.488282 0l-150 119.730469c-1.292968 1.035156-2.105468 2.558594-2.238281 4.210938-.132813 1.652343.425781 3.285156 1.539063 4.511718l29.941406 32.960938c2.128906 2.34375 5.71875 2.628906 8.191406.648437l9.75-7.8125v104.128907l-115.132812-152.566407 66.757812-89.167969c14.332031-19.5 21.359375-42.417968 19.78125-64.53125-1.636719-23.640624-11.738281-45.902343-28.453125-62.699218-17.34375-17.449219-40.925781-27.261719-65.527344-27.261719-24.601562 0-48.1875 9.8125-65.53125 27.261719-16.710937 16.796875-26.8125 39.050781-28.457031 62.691406-1.578125 22.113281 5.453125 45.035156 19.820312 64.578125l68.941407 92.101563-.078125.058593 129.089844 171.058594c1.132812 1.503906 2.902343 2.390625 4.785156 2.390625h201.125c3.3125 0 6-2.6875 6-6v-122.046875l9.757812 7.816406c2.472656 1.980469 6.0625 1.699219 8.195313-.648437l29.929687-32.960938c1.113282-1.226562 1.667969-2.859375 1.535156-4.511718-.128906-1.652344-.941406-3.175782-2.238281-4.210938zm-464.898438-166.785156c1.441406-20.761719 10.316406-40.3125 24.992188-55.066406 15.089843-15.1875 35.617187-23.730469 57.027343-23.730469 21.410157 0 41.933594 8.542969 57.023438 23.730469 14.679687 14.757812 23.550781 34.3125 24.988281 55.078124 1.371094 19.285157-4.835938 39.378907-17.449219 56.535157l-64.566406 86.246093-64.53125-86.203124c-12.648437-17.207032-18.859375-37.304688-17.484375-56.589844zm405.714844 317.34375h-189.121094v-125.652344l94.558594-75.757812 94.5625 75.753906zm24.859375-121.117188-115.667969-92.664062c-2.191406-1.753906-5.308594-1.753906-7.5 0l-115.660156 92.664062-21.851563-24.050781 141.257813-112.753906 96.820312 77.28125 44.441406 35.472656zm0 0"/><path d="m282.339844 328.507812c0 22.644532 18.359375 41 41 41 22.644531 0 41-18.355468 41-41 0-22.644531-18.355469-41-41-41-22.632813.027344-40.972656 18.367188-41 41zm70 0c0 16.015626-12.980469 29-29 29-16.015625 0-29-12.984374-29-29 0-16.015624 12.984375-29 29-29 16.011718.019532 28.984375 12.992188 29 29zm0 0"/></g></svg>